<svg version="1.1" xmlns="http://www.w3.org/2000/svg" viewBox="0 0 574.73046875 606.140625" width="1149.4609375" height="1212.28125">
  <!-- svg-source:excalidraw -->
  
  <defs>
    <style class="style-fonts">
      
    </style>
    
  </defs>
  <rect x="0" y="0" width="574.73046875" height="606.140625" fill="#ffffff"></rect><g stroke-linecap="round" transform="translate(144.625 237.01171875) rotate(0 35.693359375 33)"><path d="M71.39 33 C71.39 34.72, 71.24 36.46, 70.95 38.16 C70.66 39.86, 70.21 41.56, 69.64 43.2 C69.06 44.83, 68.34 46.45, 67.5 47.98 C66.65 49.51, 65.66 51, 64.57 52.4 C63.48 53.79, 62.25 55.12, 60.93 56.33 C59.62 57.55, 58.18 58.69, 56.67 59.7 C55.17 60.71, 53.56 61.62, 51.9 62.4 C50.24 63.18, 48.49 63.85, 46.72 64.38 C44.95 64.92, 43.12 65.32, 41.28 65.59 C39.44 65.86, 37.55 66, 35.69 66 C33.83 66, 31.95 65.86, 30.11 65.59 C28.27 65.32, 26.43 64.92, 24.66 64.38 C22.89 63.85, 21.15 63.18, 19.49 62.4 C17.83 61.62, 16.22 60.71, 14.71 59.7 C13.21 58.69, 11.77 57.55, 10.45 56.33 C9.14 55.12, 7.91 53.79, 6.82 52.4 C5.72 51, 4.74 49.51, 3.89 47.98 C3.05 46.45, 2.32 44.83, 1.75 43.2 C1.17 41.56, 0.73 39.86, 0.44 38.16 C0.15 36.46, 0 34.72, 0 33 C0 31.28, 0.15 29.54, 0.44 27.84 C0.73 26.14, 1.17 24.44, 1.75 22.8 C2.32 21.17, 3.05 19.55, 3.89 18.02 C4.74 16.49, 5.72 15, 6.82 13.6 C7.91 12.21, 9.14 10.88, 10.45 9.67 C11.77 8.45, 13.21 7.31, 14.71 6.3 C16.22 5.29, 17.83 4.38, 19.49 3.6 C21.15 2.82, 22.89 2.15, 24.66 1.62 C26.43 1.08, 28.27 0.68, 30.11 0.41 C31.95 0.14, 33.83 0, 35.69 0 C37.55 0, 39.44 0.14, 41.28 0.41 C43.12 0.68, 44.95 1.08, 46.72 1.62 C48.49 2.15, 50.24 2.82, 51.9 3.6 C53.56 4.38, 55.17 5.29, 56.67 6.3 C58.18 7.31, 59.62 8.45, 60.93 9.67 C62.25 10.88, 63.48 12.21, 64.57 13.6 C65.66 15, 66.65 16.49, 67.5 18.02 C68.34 19.55, 69.06 21.17, 69.64 22.8 C70.21 24.44, 70.66 26.14, 70.95 27.84 C71.24 29.54, 71.31 32.14, 71.39 33 C71.46 33.86, 71.46 32.14, 71.39 33" stroke="#1e1e1e" stroke-width="1" fill="none"></path></g><g transform="translate(162.1144991676091 251.77719497084394) rotate(0 17.96484375 18.400000000000006)"><text x="17.96484375" y="13.5203125" font-family="Helvetica, Segoe UI Emoji" font-size="16px" fill="#1e1e1e" text-anchor="middle" style="white-space: pre;" direction="ltr" dominant-baseline="alphabetic">node</text><text x="17.96484375" y="31.920312499999998" font-family="Helvetica, Segoe UI Emoji" font-size="16px" fill="#1e1e1e" text-anchor="middle" style="white-space: pre;" direction="ltr" dominant-baseline="alphabetic">0</text></g><g stroke-linecap="round" transform="translate(302.705078125 234.45703125) rotate(0 35.693359375 33)"><path d="M71.39 33 C71.39 34.72, 71.24 36.46, 70.95 38.16 C70.66 39.86, 70.21 41.56, 69.64 43.2 C69.06 44.83, 68.34 46.45, 67.5 47.98 C66.65 49.51, 65.66 51, 64.57 52.4 C63.48 53.79, 62.25 55.12, 60.93 56.33 C59.62 57.55, 58.18 58.69, 56.67 59.7 C55.17 60.71, 53.56 61.62, 51.9 62.4 C50.24 63.18, 48.49 63.85, 46.72 64.38 C44.95 64.92, 43.12 65.32, 41.28 65.59 C39.44 65.86, 37.55 66, 35.69 66 C33.83 66, 31.95 65.86, 30.11 65.59 C28.27 65.32, 26.43 64.92, 24.66 64.38 C22.89 63.85, 21.15 63.18, 19.49 62.4 C17.83 61.62, 16.22 60.71, 14.71 59.7 C13.21 58.69, 11.77 57.55, 10.45 56.33 C9.14 55.12, 7.91 53.79, 6.82 52.4 C5.72 51, 4.74 49.51, 3.89 47.98 C3.05 46.45, 2.32 44.83, 1.75 43.2 C1.17 41.56, 0.73 39.86, 0.44 38.16 C0.15 36.46, 0 34.72, 0 33 C0 31.28, 0.15 29.54, 0.44 27.84 C0.73 26.14, 1.17 24.44, 1.75 22.8 C2.32 21.17, 3.05 19.55, 3.89 18.02 C4.74 16.49, 5.72 15, 6.82 13.6 C7.91 12.21, 9.14 10.88, 10.45 9.67 C11.77 8.45, 13.21 7.31, 14.71 6.3 C16.22 5.29, 17.83 4.38, 19.49 3.6 C21.15 2.82, 22.89 2.15, 24.66 1.62 C26.43 1.08, 28.27 0.68, 30.11 0.41 C31.95 0.14, 33.83 0, 35.69 0 C37.55 0, 39.44 0.14, 41.28 0.41 C43.12 0.68, 44.95 1.08, 46.72 1.62 C48.49 2.15, 50.24 2.82, 51.9 3.6 C53.56 4.38, 55.17 5.29, 56.67 6.3 C58.18 7.31, 59.62 8.45, 60.93 9.67 C62.25 10.88, 63.48 12.21, 64.57 13.6 C65.66 15, 66.65 16.49, 67.5 18.02 C68.34 19.55, 69.06 21.17, 69.64 22.8 C70.21 24.44, 70.66 26.14, 70.95 27.84 C71.24 29.54, 71.31 32.14, 71.39 33 C71.46 33.86, 71.46 32.14, 71.39 33" stroke="#1e1e1e" stroke-width="1" fill="none"></path></g><g transform="translate(320.1945772926091 249.22250747084394) rotate(0 17.96484375 18.400000000000006)"><text x="17.96484375" y="13.5203125" font-family="Helvetica, Segoe UI Emoji" font-size="16px" fill="#1e1e1e" text-anchor="middle" style="white-space: pre;" direction="ltr" dominant-baseline="alphabetic">node</text><text x="17.96484375" y="31.920312499999998" font-family="Helvetica, Segoe UI Emoji" font-size="16px" fill="#1e1e1e" text-anchor="middle" style="white-space: pre;" direction="ltr" dominant-baseline="alphabetic">1</text></g><g stroke-linecap="round" transform="translate(386.728515625 379.38671875) rotate(0 35.693359375 33)"><path d="M71.39 33 C71.39 34.72, 71.24 36.46, 70.95 38.16 C70.66 39.86, 70.21 41.56, 69.64 43.2 C69.06 44.83, 68.34 46.45, 67.5 47.98 C66.65 49.51, 65.66 51, 64.57 52.4 C63.48 53.79, 62.25 55.12, 60.93 56.33 C59.62 57.55, 58.18 58.69, 56.67 59.7 C55.17 60.71, 53.56 61.62, 51.9 62.4 C50.24 63.18, 48.49 63.85, 46.72 64.38 C44.95 64.92, 43.12 65.32, 41.28 65.59 C39.44 65.86, 37.55 66, 35.69 66 C33.83 66, 31.95 65.86, 30.11 65.59 C28.27 65.32, 26.43 64.92, 24.66 64.38 C22.89 63.85, 21.15 63.18, 19.49 62.4 C17.83 61.62, 16.22 60.71, 14.71 59.7 C13.21 58.69, 11.77 57.55, 10.45 56.33 C9.14 55.12, 7.91 53.79, 6.82 52.4 C5.72 51, 4.74 49.51, 3.89 47.98 C3.05 46.45, 2.32 44.83, 1.75 43.2 C1.17 41.56, 0.73 39.86, 0.44 38.16 C0.15 36.46, 0 34.72, 0 33 C0 31.28, 0.15 29.54, 0.44 27.84 C0.73 26.14, 1.17 24.44, 1.75 22.8 C2.32 21.17, 3.05 19.55, 3.89 18.02 C4.74 16.49, 5.72 15, 6.82 13.6 C7.91 12.21, 9.14 10.88, 10.45 9.67 C11.77 8.45, 13.21 7.31, 14.71 6.3 C16.22 5.29, 17.83 4.38, 19.49 3.6 C21.15 2.82, 22.89 2.15, 24.66 1.62 C26.43 1.08, 28.27 0.68, 30.11 0.41 C31.95 0.14, 33.83 0, 35.69 0 C37.55 0, 39.44 0.14, 41.28 0.41 C43.12 0.68, 44.95 1.08, 46.72 1.62 C48.49 2.15, 50.24 2.82, 51.9 3.6 C53.56 4.38, 55.17 5.29, 56.67 6.3 C58.18 7.31, 59.62 8.45, 60.93 9.67 C62.25 10.88, 63.48 12.21, 64.57 13.6 C65.66 15, 66.65 16.49, 67.5 18.02 C68.34 19.55, 69.06 21.17, 69.64 22.8 C70.21 24.44, 70.66 26.14, 70.95 27.84 C71.24 29.54, 71.31 32.14, 71.39 33 C71.46 33.86, 71.46 32.14, 71.39 33" stroke="#1e1e1e" stroke-width="1" fill="none"></path></g><g transform="translate(404.2180147926091 394.15219497084394) rotate(0 17.964843750000057 18.400000000000006)"><text x="17.96484375" y="13.5203125" font-family="Helvetica, Segoe UI Emoji" font-size="16px" fill="#1e1e1e" text-anchor="middle" style="white-space: pre;" direction="ltr" dominant-baseline="alphabetic">node</text><text x="17.96484375" y="31.920312499999998" font-family="Helvetica, Segoe UI Emoji" font-size="16px" fill="#1e1e1e" text-anchor="middle" style="white-space: pre;" direction="ltr" dominant-baseline="alphabetic">2</text></g><g stroke-linecap="round" transform="translate(325.498046875 528.8671875) rotate(0 35.693359375 33)"><path d="M71.39 33 C71.39 34.72, 71.24 36.46, 70.95 38.16 C70.66 39.86, 70.21 41.56, 69.64 43.2 C69.06 44.83, 68.34 46.45, 67.5 47.98 C66.65 49.51, 65.66 51, 64.57 52.4 C63.48 53.79, 62.25 55.12, 60.93 56.33 C59.62 57.55, 58.18 58.69, 56.67 59.7 C55.17 60.71, 53.56 61.62, 51.9 62.4 C50.24 63.18, 48.49 63.85, 46.72 64.38 C44.95 64.92, 43.12 65.32, 41.28 65.59 C39.44 65.86, 37.55 66, 35.69 66 C33.83 66, 31.95 65.86, 30.11 65.59 C28.27 65.32, 26.43 64.92, 24.66 64.38 C22.89 63.85, 21.15 63.18, 19.49 62.4 C17.83 61.62, 16.22 60.71, 14.71 59.7 C13.21 58.69, 11.77 57.55, 10.45 56.33 C9.14 55.12, 7.91 53.79, 6.82 52.4 C5.72 51, 4.74 49.51, 3.89 47.98 C3.05 46.45, 2.32 44.83, 1.75 43.2 C1.17 41.56, 0.73 39.86, 0.44 38.16 C0.15 36.46, 0 34.72, 0 33 C0 31.28, 0.15 29.54, 0.44 27.84 C0.73 26.14, 1.17 24.44, 1.75 22.8 C2.32 21.17, 3.05 19.55, 3.89 18.02 C4.74 16.49, 5.72 15, 6.82 13.6 C7.91 12.21, 9.14 10.88, 10.45 9.67 C11.77 8.45, 13.21 7.31, 14.71 6.3 C16.22 5.29, 17.83 4.38, 19.49 3.6 C21.15 2.82, 22.89 2.15, 24.66 1.62 C26.43 1.08, 28.27 0.68, 30.11 0.41 C31.95 0.14, 33.83 0, 35.69 0 C37.55 0, 39.44 0.14, 41.28 0.41 C43.12 0.68, 44.95 1.08, 46.72 1.62 C48.49 2.15, 50.24 2.82, 51.9 3.6 C53.56 4.38, 55.17 5.29, 56.67 6.3 C58.18 7.31, 59.62 8.45, 60.93 9.67 C62.25 10.88, 63.48 12.21, 64.57 13.6 C65.66 15, 66.65 16.49, 67.5 18.02 C68.34 19.55, 69.06 21.17, 69.64 22.8 C70.21 24.44, 70.66 26.14, 70.95 27.84 C71.24 29.54, 71.31 32.14, 71.39 33 C71.46 33.86, 71.46 32.14, 71.39 33" stroke="#1e1e1e" stroke-width="1" fill="none"></path></g><g transform="translate(342.9875460426091 543.632663720844) rotate(0 17.96484375 18.399999999999977)"><text x="17.96484375" y="13.5203125" font-family="Helvetica, Segoe UI Emoji" font-size="16px" fill="#1e1e1e" text-anchor="middle" style="white-space: pre;" direction="ltr" dominant-baseline="alphabetic">node</text><text x="17.96484375" y="31.920312499999998" font-family="Helvetica, Segoe UI Emoji" font-size="16px" fill="#1e1e1e" text-anchor="middle" style="white-space: pre;" direction="ltr" dominant-baseline="alphabetic">3</text></g><g stroke-linecap="round" transform="translate(143.818359375 530.140625) rotate(0 35.693359375 33)"><path d="M71.39 33 C71.39 34.72, 71.24 36.46, 70.95 38.16 C70.66 39.86, 70.21 41.56, 69.64 43.2 C69.06 44.83, 68.34 46.45, 67.5 47.98 C66.65 49.51, 65.66 51, 64.57 52.4 C63.48 53.79, 62.25 55.12, 60.93 56.33 C59.62 57.55, 58.18 58.69, 56.67 59.7 C55.17 60.71, 53.56 61.62, 51.9 62.4 C50.24 63.18, 48.49 63.85, 46.72 64.38 C44.95 64.92, 43.12 65.32, 41.28 65.59 C39.44 65.86, 37.55 66, 35.69 66 C33.83 66, 31.95 65.86, 30.11 65.59 C28.27 65.32, 26.43 64.92, 24.66 64.38 C22.89 63.85, 21.15 63.18, 19.49 62.4 C17.83 61.62, 16.22 60.71, 14.71 59.7 C13.21 58.69, 11.77 57.55, 10.45 56.33 C9.14 55.12, 7.91 53.79, 6.82 52.4 C5.72 51, 4.74 49.51, 3.89 47.98 C3.05 46.45, 2.32 44.83, 1.75 43.2 C1.17 41.56, 0.73 39.86, 0.44 38.16 C0.15 36.46, 0 34.72, 0 33 C0 31.28, 0.15 29.54, 0.44 27.84 C0.73 26.14, 1.17 24.44, 1.75 22.8 C2.32 21.17, 3.05 19.55, 3.89 18.02 C4.74 16.49, 5.72 15, 6.82 13.6 C7.91 12.21, 9.14 10.88, 10.45 9.67 C11.77 8.45, 13.21 7.31, 14.71 6.3 C16.22 5.29, 17.83 4.38, 19.49 3.6 C21.15 2.82, 22.89 2.15, 24.66 1.62 C26.43 1.08, 28.27 0.68, 30.11 0.41 C31.95 0.14, 33.83 0, 35.69 0 C37.55 0, 39.44 0.14, 41.28 0.41 C43.12 0.68, 44.95 1.08, 46.72 1.62 C48.49 2.15, 50.24 2.82, 51.9 3.6 C53.56 4.38, 55.17 5.29, 56.67 6.3 C58.18 7.31, 59.62 8.45, 60.93 9.67 C62.25 10.88, 63.48 12.21, 64.57 13.6 C65.66 15, 66.65 16.49, 67.5 18.02 C68.34 19.55, 69.06 21.17, 69.64 22.8 C70.21 24.44, 70.66 26.14, 70.95 27.84 C71.24 29.54, 71.31 32.14, 71.39 33 C71.46 33.86, 71.46 32.14, 71.39 33" stroke="#1e1e1e" stroke-width="1" fill="none"></path></g><g transform="translate(161.3078585426091 544.906101220844) rotate(0 17.96484375 18.399999999999977)"><text x="17.96484375" y="13.5203125" font-family="Helvetica, Segoe UI Emoji" font-size="16px" fill="#1e1e1e" text-anchor="middle" style="white-space: pre;" direction="ltr" dominant-baseline="alphabetic">node</text><text x="17.96484375" y="31.920312499999998" font-family="Helvetica, Segoe UI Emoji" font-size="16px" fill="#1e1e1e" text-anchor="middle" style="white-space: pre;" direction="ltr" dominant-baseline="alphabetic">4</text></g><g stroke-linecap="round" transform="translate(57.654296875 394.53515625) rotate(0 35.693359375 33)"><path d="M71.39 33 C71.39 34.72, 71.24 36.46, 70.95 38.16 C70.66 39.86, 70.21 41.56, 69.64 43.2 C69.06 44.83, 68.34 46.45, 67.5 47.98 C66.65 49.51, 65.66 51, 64.57 52.4 C63.48 53.79, 62.25 55.12, 60.93 56.33 C59.62 57.55, 58.18 58.69, 56.67 59.7 C55.17 60.71, 53.56 61.62, 51.9 62.4 C50.24 63.18, 48.49 63.85, 46.72 64.38 C44.95 64.92, 43.12 65.32, 41.28 65.59 C39.44 65.86, 37.55 66, 35.69 66 C33.83 66, 31.95 65.86, 30.11 65.59 C28.27 65.32, 26.43 64.92, 24.66 64.38 C22.89 63.85, 21.15 63.18, 19.49 62.4 C17.83 61.62, 16.22 60.71, 14.71 59.7 C13.21 58.69, 11.77 57.55, 10.45 56.33 C9.14 55.12, 7.91 53.79, 6.82 52.4 C5.72 51, 4.74 49.51, 3.89 47.98 C3.05 46.45, 2.32 44.83, 1.75 43.2 C1.17 41.56, 0.73 39.86, 0.44 38.16 C0.15 36.46, 0 34.72, 0 33 C0 31.28, 0.15 29.54, 0.44 27.84 C0.73 26.14, 1.17 24.44, 1.75 22.8 C2.32 21.17, 3.05 19.55, 3.89 18.02 C4.74 16.49, 5.72 15, 6.82 13.6 C7.91 12.21, 9.14 10.88, 10.45 9.67 C11.77 8.45, 13.21 7.31, 14.71 6.3 C16.22 5.29, 17.83 4.38, 19.49 3.6 C21.15 2.82, 22.89 2.15, 24.66 1.62 C26.43 1.08, 28.27 0.68, 30.11 0.41 C31.95 0.14, 33.83 0, 35.69 0 C37.55 0, 39.44 0.14, 41.28 0.41 C43.12 0.68, 44.95 1.08, 46.72 1.62 C48.49 2.15, 50.24 2.82, 51.9 3.6 C53.56 4.38, 55.17 5.29, 56.67 6.3 C58.18 7.31, 59.62 8.45, 60.93 9.67 C62.25 10.88, 63.48 12.21, 64.57 13.6 C65.66 15, 66.65 16.49, 67.5 18.02 C68.34 19.55, 69.06 21.17, 69.64 22.8 C70.21 24.44, 70.66 26.14, 70.95 27.84 C71.24 29.54, 71.31 32.14, 71.39 33 C71.46 33.86, 71.46 32.14, 71.39 33" stroke="#1e1e1e" stroke-width="1" fill="none"></path></g><g transform="translate(75.1437960426091 409.30063247084394) rotate(0 17.96484375 18.400000000000006)"><text x="17.96484375" y="13.5203125" font-family="Helvetica, Segoe UI Emoji" font-size="16px" fill="#1e1e1e" text-anchor="middle" style="white-space: pre;" direction="ltr" dominant-baseline="alphabetic">node</text><text x="17.96484375" y="31.920312499999998" font-family="Helvetica, Segoe UI Emoji" font-size="16px" fill="#1e1e1e" text-anchor="middle" style="white-space: pre;" direction="ltr" dominant-baseline="alphabetic">5</text></g><g stroke-linecap="round"><g transform="translate(198.515625 299.88671875) rotate(0 72.68359375 116.9921875)"><path d="M0 0 C24.23 39, 121.14 194.99, 145.37 233.98 M0 0 C24.23 39, 121.14 194.99, 145.37 233.98" stroke="#1e1e1e" stroke-width="1" fill="none"></path></g><g transform="translate(198.515625 299.88671875) rotate(0 72.68359375 116.9921875)"><path d="M125.71 218.54 C133.51 224.67, 141.31 230.8, 145.37 233.98 M125.71 218.54 C133.22 224.44, 140.73 230.34, 145.37 233.98" stroke="#1e1e1e" stroke-width="1" fill="none"></path></g><g transform="translate(198.515625 299.88671875) rotate(0 72.68359375 116.9921875)"><path d="M140.23 209.52 C142.27 219.23, 144.31 228.94, 145.37 233.98 M140.23 209.52 C142.19 218.86, 144.15 228.21, 145.37 233.98" stroke="#1e1e1e" stroke-width="1" fill="none"></path></g></g><mask></mask><g stroke-linecap="round"><g transform="translate(129.30078125 429.25390625) rotate(0 91.818359375 -67.634765625)"><path d="M0 0 C30.61 -22.54, 153.03 -112.72, 183.64 -135.27 M0 0 C30.61 -22.54, 153.03 -112.72, 183.64 -135.27" stroke="#1e1e1e" stroke-width="1" fill="none"></path></g><g transform="translate(129.30078125 429.25390625) rotate(0 91.818359375 -67.634765625)"><path d="M169.79 -114.45 C175.28 -122.7, 180.76 -130.94, 183.64 -135.27 M169.79 -114.45 C174.53 -121.57, 179.26 -128.69, 183.64 -135.27" stroke="#1e1e1e" stroke-width="1" fill="none"></path></g><g transform="translate(129.30078125 429.25390625) rotate(0 91.818359375 -67.634765625)"><path d="M159.65 -128.22 C169.15 -131.01, 178.65 -133.8, 183.64 -135.27 M159.65 -128.22 C167.85 -130.63, 176.05 -133.04, 183.64 -135.27" stroke="#1e1e1e" stroke-width="1" fill="none"></path></g></g><mask></mask><g stroke-linecap="round"><g transform="translate(382.24609375 402.375) rotate(0 -87.669921875 66.728515625)"><path d="M0 0 C-29.22 22.24, -146.12 111.21, -175.34 133.46 M0 0 C-29.22 22.24, -146.12 111.21, -175.34 133.46" stroke="#1e1e1e" stroke-width="1" fill="none"></path></g><g transform="translate(382.24609375 402.375) rotate(0 -87.669921875 66.728515625)"><path d="M-161.83 112.42 C-165.35 117.91, -168.87 123.39, -175.34 133.46 M-161.83 112.42 C-165.77 118.57, -169.72 124.71, -175.34 133.46" stroke="#1e1e1e" stroke-width="1" fill="none"></path></g><g transform="translate(382.24609375 402.375) rotate(0 -87.669921875 66.728515625)"><path d="M-151.47 126.03 C-157.69 127.97, -163.91 129.9, -175.34 133.46 M-151.47 126.03 C-158.44 128.2, -165.41 130.37, -175.34 133.46" stroke="#1e1e1e" stroke-width="1" fill="none"></path></g></g><mask></mask><g stroke-linecap="round" transform="translate(461.91796875 383.5) rotate(0 42.931640625 24.673828125)"><path d="M12.34 0 C30.58 0, 48.83 0, 73.53 0 M12.34 0 C31.12 0, 49.91 0, 73.53 0 M73.53 0 C81.75 0, 85.86 4.11, 85.86 12.34 M73.53 0 C81.75 0, 85.86 4.11, 85.86 12.34 M85.86 12.34 C85.86 19.71, 85.86 27.08, 85.86 37.01 M85.86 12.34 C85.86 21.68, 85.86 31.03, 85.86 37.01 M85.86 37.01 C85.86 45.24, 81.75 49.35, 73.53 49.35 M85.86 37.01 C85.86 45.24, 81.75 49.35, 73.53 49.35 M73.53 49.35 C53.29 49.35, 33.06 49.35, 12.34 49.35 M73.53 49.35 C58.86 49.35, 44.19 49.35, 12.34 49.35 M12.34 49.35 C4.11 49.35, 0 45.24, 0 37.01 M12.34 49.35 C4.11 49.35, 0 45.24, 0 37.01 M0 37.01 C0 29.74, 0 22.46, 0 12.34 M0 37.01 C0 31.12, 0 25.23, 0 12.34 M0 12.34 C0 4.11, 4.11 0, 12.34 0 M0 12.34 C0 4.11, 4.11 0, 12.34 0" stroke="#2f9e44" stroke-width="1" fill="none"></path></g><g transform="translate(476.205078125 389.773828125) rotate(0 28.64453125 18.400000000000006)"><text x="28.64453125" y="13.5203125" font-family="Helvetica, Segoe UI Emoji" font-size="16px" fill="#2f9e44" text-anchor="middle" style="white-space: pre;" direction="ltr" dominant-baseline="alphabetic">build </text><text x="28.64453125" y="31.920312499999998" font-family="Helvetica, Segoe UI Emoji" font-size="16px" fill="#2f9e44" text-anchor="middle" style="white-space: pre;" direction="ltr" dominant-baseline="alphabetic">image 2</text></g><g stroke-linecap="round" transform="translate(44.185546875 345.060546875) rotate(0 42.931640625 24.673828125)"><path d="M12.34 0 C34.99 0, 57.64 0, 73.53 0 M12.34 0 C24.92 0, 37.5 0, 73.53 0 M73.53 0 C81.75 0, 85.86 4.11, 85.86 12.34 M73.53 0 C81.75 0, 85.86 4.11, 85.86 12.34 M85.86 12.34 C85.86 18.55, 85.86 24.76, 85.86 37.01 M85.86 12.34 C85.86 21.07, 85.86 29.8, 85.86 37.01 M85.86 37.01 C85.86 45.24, 81.75 49.35, 73.53 49.35 M85.86 37.01 C85.86 45.24, 81.75 49.35, 73.53 49.35 M73.53 49.35 C58.22 49.35, 42.92 49.35, 12.34 49.35 M73.53 49.35 C57.43 49.35, 41.34 49.35, 12.34 49.35 M12.34 49.35 C4.11 49.35, 0 45.24, 0 37.01 M12.34 49.35 C4.11 49.35, 0 45.24, 0 37.01 M0 37.01 C0 27.84, 0 18.66, 0 12.34 M0 37.01 C0 32.02, 0 27.02, 0 12.34 M0 12.34 C0 4.11, 4.11 0, 12.34 0 M0 12.34 C0 4.11, 4.11 0, 12.34 0" stroke="#2f9e44" stroke-width="1" fill="none"></path></g><g transform="translate(58.48046875 351.334375) rotate(0 28.63671875 18.400000000000006)"><text x="28.63671875" y="13.5203125" font-family="Helvetica, Segoe UI Emoji" font-size="16px" fill="#2f9e44" text-anchor="middle" style="white-space: pre;" direction="ltr" dominant-baseline="alphabetic">build </text><text x="28.63671875" y="31.920312499999998" font-family="Helvetica, Segoe UI Emoji" font-size="16px" fill="#2f9e44" text-anchor="middle" style="white-space: pre;" direction="ltr" dominant-baseline="alphabetic">image 5</text></g><g stroke-linecap="round" transform="translate(136.212890625 179.884765625) rotate(0 42.931640625 24.673828125)"><path d="M12.34 0 C30.87 0, 49.41 0, 73.53 0 M12.34 0 C25.33 0, 38.32 0, 73.53 0 M73.53 0 C81.75 0, 85.86 4.11, 85.86 12.34 M73.53 0 C81.75 0, 85.86 4.11, 85.86 12.34 M85.86 12.34 C85.86 19.78, 85.86 27.22, 85.86 37.01 M85.86 12.34 C85.86 20.32, 85.86 28.31, 85.86 37.01 M85.86 37.01 C85.86 45.24, 81.75 49.35, 73.53 49.35 M85.86 37.01 C85.86 45.24, 81.75 49.35, 73.53 49.35 M73.53 49.35 C50.31 49.35, 27.09 49.35, 12.34 49.35 M73.53 49.35 C53.45 49.35, 33.37 49.35, 12.34 49.35 M12.34 49.35 C4.11 49.35, 0 45.24, 0 37.01 M12.34 49.35 C4.11 49.35, 0 45.24, 0 37.01 M0 37.01 C0 31.61, 0 26.21, 0 12.34 M0 37.01 C0 28.32, 0 19.63, 0 12.34 M0 12.34 C0 4.11, 4.11 0, 12.34 0 M0 12.34 C0 4.11, 4.11 0, 12.34 0" stroke="#2f9e44" stroke-width="1" fill="none"></path></g><g transform="translate(150.5078125 186.15859375000002) rotate(0 28.63671875 18.400000000000006)"><text x="28.63671875" y="13.5203125" font-family="Helvetica, Segoe UI Emoji" font-size="16px" fill="#2f9e44" text-anchor="middle" style="white-space: pre;" direction="ltr" dominant-baseline="alphabetic">build </text><text x="28.63671875" y="31.920312499999998" font-family="Helvetica, Segoe UI Emoji" font-size="16px" fill="#2f9e44" text-anchor="middle" style="white-space: pre;" direction="ltr" dominant-baseline="alphabetic">image 0</text></g><g stroke-linecap="round" transform="translate(10 43.16796875) rotate(0 277.365234375 38.5078125)"><path d="M19.25 0 C131.15 0, 243.05 0, 535.48 0 M19.25 0 C134.6 0, 249.95 0, 535.48 0 M535.48 0 C548.31 0, 554.73 6.42, 554.73 19.25 M535.48 0 C548.31 0, 554.73 6.42, 554.73 19.25 M554.73 19.25 C554.73 29.36, 554.73 39.47, 554.73 57.76 M554.73 19.25 C554.73 29.01, 554.73 38.78, 554.73 57.76 M554.73 57.76 C554.73 70.6, 548.31 77.02, 535.48 77.02 M554.73 57.76 C554.73 70.6, 548.31 77.02, 535.48 77.02 M535.48 77.02 C345.8 77.02, 156.13 77.02, 19.25 77.02 M535.48 77.02 C340.02 77.02, 144.57 77.02, 19.25 77.02 M19.25 77.02 C6.42 77.02, 0 70.6, 0 57.76 M19.25 77.02 C6.42 77.02, 0 70.6, 0 57.76 M0 57.76 C0 42.6, 0 27.45, 0 19.25 M0 57.76 C0 47.34, 0 36.91, 0 19.25 M0 19.25 C0 6.42, 6.42 0, 19.25 0 M0 19.25 C0 6.42, 6.42 0, 19.25 0" stroke="#1e1e1e" stroke-width="1" fill="none"></path></g><g transform="translate(245.736328125 72.47578125000001) rotate(0 41.62890625 9.200000000000003)"><text x="41.62890625" y="13.5203125" font-family="Helvetica, Segoe UI Emoji" font-size="16px" fill="#1e1e1e" text-anchor="middle" style="white-space: pre;" direction="ltr" dominant-baseline="alphabetic">S3/Registry</text></g><g transform="translate(231.578125 10) rotate(0 55.83203125 9.200000000000003)"><text x="0" y="13.5203125" font-family="Helvetica, Segoe UI Emoji" font-size="16px" fill="#1e1e1e" text-anchor="start" style="white-space: pre;" direction="ltr" dominant-baseline="alphabetic">Backup storage</text></g></svg>